# Blender v2.79 (sub 0) OBJ File: ''
# www.blender.org
mtllib Fence.mtl
o Cylinder
v 0.000000 -3.750023 -0.050000
v 0.000000 -0.000023 -0.050000
v 0.019134 -3.750023 -0.046194
v 0.019134 -0.000023 -0.046194
v 0.035355 -3.750023 -0.035355
v 0.035355 -0.000023 -0.035355
v 0.046194 -3.750023 -0.019134
v 0.046194 -0.000023 -0.019134
v 0.050000 -3.750023 0.000000
v 0.050000 -0.000023 0.000000
v 0.046194 -3.750023 0.019134
v 0.046194 -0.000023 0.019134
v 0.035355 -3.750023 0.035355
v 0.035355 -0.000023 0.035355
v 0.019134 -3.750023 0.046194
v 0.019134 -0.000023 0.046194
v 0.000000 -3.750023 0.050000
v 0.000000 -0.000023 0.050000
v -0.019134 -3.750023 0.046194
v -0.019134 -0.000023 0.046194
v -0.035355 -3.750023 0.035355
v -0.035355 -0.000023 0.035355
v -0.046194 -3.750023 0.019134
v -0.046194 -0.000023 0.019134
v -0.050000 -3.750023 -0.000000
v -0.050000 -0.000023 -0.000000
v -0.046194 -3.750023 -0.019134
v -0.046194 -0.000023 -0.019134
v -0.035355 -3.750023 -0.035355
v -0.035355 -0.000023 -0.035355
v -0.019134 -3.750023 -0.046194
v -0.019134 -0.000023 -0.046194
v -0.000000 -4.000022 0.000000
vn 0.1951 0.0000 -0.9808
vn 0.5556 0.0000 -0.8315
vn 0.8315 0.0000 -0.5556
vn 0.9808 0.0000 -0.1951
vn 0.9808 0.0000 0.1951
vn 0.8315 0.0000 0.5556
vn 0.5556 0.0000 0.8315
vn 0.1951 0.0000 0.9808
vn -0.1951 0.0000 0.9808
vn -0.5556 0.0000 0.8315
vn -0.8315 0.0000 0.5556
vn -0.9808 0.0000 0.1951
vn -0.9808 0.0000 -0.1951
vn -0.8315 0.0000 -0.5556
vn 0.0000 1.0000 -0.0000
vn -0.5556 0.0000 -0.8315
vn -0.1951 0.0000 -0.9808
vn 0.5452 -0.1925 -0.8159
vn 0.5452 -0.1925 0.8159
vn -0.9624 -0.1925 0.1914
vn 0.9624 -0.1925 0.1914
vn -0.5452 -0.1925 0.8159
vn -0.5452 -0.1925 -0.8159
vn 0.8159 -0.1925 -0.5452
vn 0.1914 -0.1925 0.9624
vn 0.1914 -0.1925 -0.9624
vn -0.9624 -0.1925 -0.1914
vn 0.8159 -0.1925 0.5452
vn -0.8159 -0.1925 0.5452
vn -0.1914 -0.1925 -0.9624
vn 0.9624 -0.1925 -0.1914
vn -0.1914 -0.1925 0.9624
vn -0.8159 -0.1925 -0.5452
usemtl None
s off
f 1//1 2//1 4//1 3//1
f 3//2 4//2 6//2 5//2
f 5//3 6//3 8//3 7//3
f 7//4 8//4 10//4 9//4
f 9//5 10//5 12//5 11//5
f 11//6 12//6 14//6 13//6
f 13//7 14//7 16//7 15//7
f 15//8 16//8 18//8 17//8
f 17//9 18//9 20//9 19//9
f 19//10 20//10 22//10 21//10
f 21//11 22//11 24//11 23//11
f 23//12 24//12 26//12 25//12
f 25//13 26//13 28//13 27//13
f 27//14 28//14 30//14 29//14
f 4//15 2//15 32//15 30//15 28//15 26//15 24//15 22//15 20//15 18//15 16//15 14//15 12//15 10//15 8//15 6//15
f 29//16 30//16 32//16 31//16
f 31//17 32//17 2//17 1//17
f 3//18 5//18 33//18
f 13//19 15//19 33//19
f 23//20 25//20 33//20
f 9//21 11//21 33//21
f 19//22 21//22 33//22
f 29//23 31//23 33//23
f 5//24 7//24 33//24
f 15//25 17//25 33//25
f 1//26 3//26 33//26
f 25//27 27//27 33//27
f 11//28 13//28 33//28
f 21//29 23//29 33//29
f 31//30 1//30 33//30
f 7//31 9//31 33//31
f 17//32 19//32 33//32
f 27//33 29//33 33//33
