# Blender v2.79 (sub 0) OBJ File: ''
# www.blender.org
mtllib Mesh_Trout.mtl
o Geo_Trout
v -0.105086 -0.002721 0.057444
v -0.050377 -0.053478 0.057444
v -0.047910 -0.053478 0.193502
v -0.102618 -0.002721 0.193502
v 0.059039 -0.053478 0.057444
v 0.059039 -0.053478 0.193502
v 0.113748 -0.002721 0.057444
v 0.113748 -0.002721 0.193502
v 0.047787 -0.045246 -0.069951
v 0.093623 -0.002721 -0.069951
v -0.043884 -0.045246 -0.069951
v -0.089720 -0.002721 -0.069951
v 0.039374 -0.039649 -0.150375
v 0.079177 -0.002721 -0.150375
v -0.040230 -0.039649 -0.150375
v -0.080033 -0.002721 -0.150375
v 0.031085 -0.026807 -0.254411
v 0.057046 -0.002721 -0.254411
v -0.020837 -0.026807 -0.254411
v -0.046798 -0.002721 -0.254411
v 0.028684 -0.023844 -0.315652
v 0.051451 -0.002721 -0.315652
v -0.016850 -0.023844 -0.315652
v -0.039616 -0.002721 -0.315652
v 0.036969 -0.008412 -0.381320
v 0.064376 -0.002721 -0.366877
v -0.025134 -0.008412 -0.381320
v -0.053019 -0.002721 -0.368768
v -0.033366 -0.047235 0.299832
v -0.076610 -0.002721 0.305655
v 0.053982 -0.045377 0.318725
v 0.088907 -0.002721 0.352684
v -0.061250 -0.002721 0.373536
v 0.047829 -0.039190 0.373536
v -0.024890 -0.039190 0.373536
v 0.084188 -0.002721 0.373536
v -0.020078 -0.030436 0.439205
v -0.046866 -0.002721 0.439205
v -0.001716 -0.030436 0.454354
v 0.060286 -0.002721 0.439205
v 0.033498 -0.030436 0.439205
v -0.016873 -0.019320 0.484951
v -0.025376 -0.002721 0.484951
v -0.006382 -0.019320 0.484951
v 0.033001 -0.002721 0.484951
v 0.020657 -0.019320 0.484951
v 0.071964 -0.008412 -0.487570
v 0.122940 -0.002721 -0.487570
v -0.029989 -0.008412 -0.478571
v -0.080965 -0.002721 -0.499375
v 0.002629 -0.019320 0.484951
v -0.006382 -0.002721 0.439205
v -0.006382 -0.002721 0.491443
v 0.009767 -0.002721 0.500650
v 0.071964 -0.002721 -0.487570
v -0.029989 -0.002721 -0.478571
v -0.047910 0.048036 0.193502
v -0.050377 0.048036 0.057444
v 0.059039 0.048036 0.193502
v 0.059039 0.048036 0.057444
v 0.047787 0.039804 -0.069951
v -0.043884 0.039804 -0.069951
v 0.039374 0.034206 -0.150375
v -0.040230 0.034206 -0.150375
v 0.031085 0.021365 -0.254411
v -0.020837 0.021365 -0.254411
v 0.028684 0.018401 -0.315652
v -0.016850 0.018401 -0.315652
v 0.036969 0.002970 -0.381320
v -0.025134 0.002970 -0.381320
v -0.033366 0.041792 0.299832
v 0.053982 0.039935 0.318725
v -0.024890 0.033747 0.373536
v 0.047829 0.033747 0.373536
v -0.020078 0.024994 0.439205
v -0.001716 0.024994 0.454354
v 0.033498 0.024994 0.439205
v -0.016873 0.013878 0.484951
v -0.006382 0.013878 0.484951
v 0.020657 0.013878 0.484951
v 0.071964 0.002970 -0.487570
v -0.029989 0.002970 -0.478571
v 0.002629 0.013878 0.484951
v 0.104248 0.003674 0.124838
v 0.104248 -0.009116 0.124838
v 0.213221 -0.004972 0.008004
v 0.213221 -0.000470 0.008004
v 0.112914 -0.004972 -0.079757
v 0.112914 -0.000470 -0.079757
v 0.086849 -0.009116 -0.014021
v 0.086849 0.003674 -0.014021
v -0.074298 -0.008003 -0.138653
v -0.074315 0.002583 -0.138659
v -0.153776 -0.000996 -0.264744
v -0.153770 -0.004722 -0.264742
v -0.058232 -0.000887 -0.285594
v -0.058226 -0.004613 -0.285592
v -0.043688 0.002584 -0.227854
v -0.043671 -0.008002 -0.227848
v 0.056233 0.000135 -0.202073
v 0.056233 -0.005577 -0.202073
v 0.081110 -0.003726 -0.277867
v 0.081110 -0.001716 -0.277867
v 0.062483 -0.003726 -0.293453
v 0.062483 -0.001716 -0.293453
v 0.048462 -0.005577 -0.251550
v 0.048462 0.000135 -0.251550
v -0.034477 -0.033077 0.321833
v -0.043367 -0.023365 0.322769
v -0.134475 -0.098945 0.246124
v -0.131346 -0.102363 0.245794
v -0.068122 -0.048883 0.236927
v -0.064993 -0.052301 0.236598
v -0.042423 -0.022306 0.291550
v -0.033534 -0.032018 0.290614
v -0.034477 0.027635 0.321833
v -0.131346 0.096921 0.245794
v -0.134475 0.093503 0.246124
v -0.043367 0.017923 0.322769
v -0.064993 0.046859 0.236598
v -0.068122 0.043441 0.236927
v -0.033534 0.026576 0.290614
v -0.042423 0.016864 0.291550
v -0.079691 -0.023682 0.066223
v -0.086841 -0.012784 0.066976
v -0.186779 -0.076152 -0.018308
v -0.184262 -0.079988 -0.018573
v -0.108078 -0.037036 -0.018873
v -0.105561 -0.040872 -0.019137
v -0.081575 -0.012600 0.025874
v -0.074425 -0.023498 0.025121
v -0.079691 0.018240 0.066223
v -0.184262 0.074545 -0.018573
v -0.186779 0.070710 -0.018308
v -0.086841 0.007342 0.066976
v -0.105561 0.035430 -0.019137
v -0.108078 0.031594 -0.018873
v -0.074425 0.018056 0.025121
v -0.081575 0.007158 0.025874
v 0.014914 -0.027855 0.412881
v 0.031072 -0.027855 0.412881
v 0.031072 -0.039162 0.413718
v 0.014914 -0.039162 0.413718
v 0.039150 -0.026893 0.425861
v 0.039150 -0.038200 0.426699
v 0.031072 -0.025932 0.438842
v 0.031072 -0.037239 0.439680
v 0.014914 -0.025932 0.438842
v 0.014914 -0.037239 0.439680
v 0.006836 -0.026893 0.425861
v 0.006836 -0.038200 0.426699
v 0.022993 -0.038200 0.426699
v 0.014914 0.022413 0.412880
v 0.014914 0.033719 0.413718
v 0.031072 0.033719 0.413718
v 0.031072 0.022413 0.412880
v 0.039150 0.032758 0.426699
v 0.039150 0.021451 0.425861
v 0.031072 0.031797 0.439680
v 0.031072 0.020490 0.438842
v 0.014914 0.031797 0.439680
v 0.014914 0.020490 0.438842
v 0.006836 0.032758 0.426699
v 0.006836 0.021451 0.425861
v 0.022993 0.032758 0.426699
vt 0.153013 0.733475
vt 0.178970 0.733475
vt 0.178970 0.793419
vt 0.153013 0.793419
vt 0.532433 0.739047
vt 0.467784 0.738639
vt 0.469795 0.686167
vt 0.532986 0.686566
vt 0.291612 0.287761
vt 0.270219 0.287761
vt 0.270219 0.238356
vt 0.291612 0.238356
vt 0.288143 0.334019
vt 0.270219 0.334019
vt 0.526714 0.788154
vt 0.472550 0.787812
vt 0.153013 0.677348
vt 0.174760 0.677348
vt 0.285783 0.363223
vt 0.270219 0.363223
vt 0.523367 0.819157
vt 0.476332 0.818860
vt 0.153013 0.641915
vt 0.171898 0.641915
vt 0.280371 0.400999
vt 0.270219 0.400999
vt 0.510371 0.859207
vt 0.479693 0.859014
vt 0.153013 0.596079
vt 0.165331 0.596079
vt 0.279122 0.423237
vt 0.270219 0.423237
vt 0.507110 0.882811
vt 0.480206 0.882641
vt 0.153013 0.569097
vt 0.163815 0.569097
vt 0.768780 0.421072
vt 0.768712 0.415613
vt 0.794063 0.417281
vt 0.794157 0.424727
vt 0.768574 0.404694
vt 0.793876 0.402389
vt 0.768505 0.399235
vt 0.793782 0.394943
vt 0.175777 0.840266
vt 0.153013 0.842831
vt 0.474633 0.637892
vt 0.525964 0.645504
vt 0.270219 0.180555
vt 0.288198 0.192886
vt 0.153013 0.872738
vt 0.479079 0.616777
vt 0.522045 0.617048
vt 0.595568 0.192886
vt 0.577589 0.180555
vt 0.577589 0.172983
vt 0.592960 0.172983
vt 0.171663 0.872738
vt 0.167187 0.901670
vt 0.153013 0.901670
vt 0.641698 0.369258
vt 0.641917 0.386695
vt 0.616427 0.374015
vt 0.724434 0.172983
vt 0.709064 0.172983
vt 0.709064 0.149138
vt 0.720745 0.149138
vt 0.161502 0.921825
vt 0.153013 0.921825
vt 0.616386 0.370731
vt 0.598784 0.374237
vt 0.598752 0.371722
vt 0.709064 0.132527
vt 0.716060 0.132527
vt 0.261610 0.724981
vt 0.261582 0.722740
vt 0.367302 0.610289
vt 0.273993 0.728789
vt 0.261526 0.718258
vt 0.216257 0.606616
vt 0.261497 0.716017
vt 0.275177 0.714057
vt 0.616548 0.383578
vt 0.598811 0.376398
vt 0.598866 0.380721
vt 0.760507 0.574306
vt 0.773563 0.620596
vt 0.741011 0.620595
vt 0.741011 0.567737
vt 0.346165 0.669898
vt 0.351514 0.650402
vt 0.358115 0.650402
vt 0.358115 0.669898
vt 0.734414 0.567737
vt 0.721358 0.614026
vt 0.701863 0.629912
vt 0.701863 0.567737
vt 0.651035 0.131158
vt 0.658801 0.150653
vt 0.644185 0.150653
vt 0.639693 0.131158
vt 0.269290 0.848370
vt 0.340801 0.836088
vt 0.372958 0.900204
vt 0.288770 0.834823
vt 0.372958 0.848370
vt 0.269290 0.900204
vt 0.178970 0.793419
vt 0.178970 0.733475
vt 0.532433 0.739047
vt 0.532986 0.686566
vt 0.469795 0.686167
vt 0.467784 0.738639
vt 0.291612 0.287761
vt 0.291612 0.238356
vt 0.288143 0.334019
vt 0.472550 0.787812
vt 0.526714 0.788154
vt 0.174760 0.677348
vt 0.285783 0.363223
vt 0.476332 0.818860
vt 0.523367 0.819157
vt 0.171898 0.641915
vt 0.280371 0.400999
vt 0.479693 0.859014
vt 0.510371 0.859207
vt 0.165331 0.596079
vt 0.279122 0.423237
vt 0.480206 0.882641
vt 0.507110 0.882811
vt 0.163815 0.569097
vt 0.794063 0.417281
vt 0.768712 0.415613
vt 0.793876 0.402389
vt 0.768574 0.404694
vt 0.175777 0.840266
vt 0.525964 0.645504
vt 0.474633 0.637892
vt 0.288198 0.192886
vt 0.522045 0.617048
vt 0.479079 0.616777
vt 0.595568 0.192886
vt 0.592960 0.172983
vt 0.167187 0.901670
vt 0.171663 0.872738
vt 0.641698 0.369258
vt 0.616427 0.374015
vt 0.641917 0.386695
vt 0.724434 0.172983
vt 0.720745 0.149138
vt 0.161502 0.921825
vt 0.616386 0.370731
vt 0.598752 0.371722
vt 0.598784 0.374237
vt 0.716060 0.132527
vt 0.367302 0.610289
vt 0.261582 0.722740
vt 0.216257 0.606616
vt 0.261526 0.718258
vt 0.616548 0.383578
vt 0.598811 0.376398
vt 0.598866 0.380721
vt 0.760507 0.574306
vt 0.773563 0.620596
vt 0.358115 0.650402
vt 0.351514 0.650402
vt 0.734414 0.567737
vt 0.721358 0.614026
vt 0.651035 0.131158
vt 0.639693 0.131158
vt 0.340801 0.836088
vt 0.288770 0.834823
vt 0.749151 0.134083
vt 0.837269 0.134083
vt 0.837269 0.222201
vt 0.749151 0.222201
vt 0.837269 0.310319
vt 0.749151 0.310319
vt 0.837269 0.398437
vt 0.749151 0.398437
vt 0.925387 0.134083
vt 0.925387 0.222201
vt 0.661033 0.134083
vt 0.661033 0.222201
vt 0.208381 0.558418
vt 0.310055 0.558418
vt 0.310055 0.660092
vt 0.208381 0.660092
vt 0.310055 0.761767
vt 0.208381 0.761767
vt 0.310055 0.863441
vt 0.208381 0.863441
vt 0.411730 0.558418
vt 0.411730 0.660092
vt 0.106706 0.558418
vt 0.106706 0.660092
vt 0.645167 0.301601
vt 0.688628 0.301601
vt 0.688628 0.345061
vt 0.645167 0.345061
vt 0.688628 0.388522
vt 0.645167 0.388522
vt 0.688628 0.431983
vt 0.645167 0.431983
vt 0.732089 0.301601
vt 0.732089 0.345061
vt 0.601706 0.301601
vt 0.601706 0.345061
vt 0.322461 0.575193
vt 0.365606 0.575193
vt 0.365606 0.618338
vt 0.322461 0.618338
vt 0.365606 0.661484
vt 0.322461 0.661484
vt 0.365606 0.704629
vt 0.322461 0.704629
vt 0.408752 0.575193
vt 0.408752 0.618338
vt 0.279315 0.575193
vt 0.279315 0.618338
vt 0.322461 0.575193
vt 0.322461 0.618338
vt 0.365606 0.618338
vt 0.365606 0.575193
vt 0.322461 0.661484
vt 0.365606 0.661484
vt 0.322461 0.704629
vt 0.365606 0.704629
vt 0.408752 0.618338
vt 0.408752 0.575193
vt 0.279315 0.575193
vt 0.279315 0.618338
vt 0.322461 0.575193
vt 0.365606 0.575193
vt 0.365606 0.618338
vt 0.322461 0.618338
vt 0.365606 0.661484
vt 0.322461 0.661484
vt 0.365606 0.704629
vt 0.322461 0.704629
vt 0.408752 0.575193
vt 0.408752 0.618338
vt 0.279315 0.575193
vt 0.279315 0.618338
vt 0.322461 0.575193
vt 0.322461 0.618338
vt 0.365606 0.618338
vt 0.365606 0.575193
vt 0.322461 0.661484
vt 0.365606 0.661484
vt 0.322461 0.704629
vt 0.365606 0.704629
vt 0.408752 0.618338
vt 0.408752 0.575193
vt 0.279315 0.575193
vt 0.279315 0.618338
vt 0.209514 0.171946
vt 0.221543 0.171946
vt 0.221543 0.280471
vt 0.209514 0.280471
vt 0.233571 0.171946
vt 0.233571 0.280471
vt 0.245599 0.171946
vt 0.245599 0.280471
vt 0.257627 0.171946
vt 0.257627 0.280471
vt 0.269655 0.171946
vt 0.269655 0.280471
vt 0.281684 0.171946
vt 0.281684 0.280471
vt 0.272127 0.364368
vt 0.227021 0.364368
vt 0.249574 0.323501
vt 0.204468 0.325305
vt 0.227021 0.286242
vt 0.272127 0.286242
vt 0.294680 0.325305
vt 0.209514 0.171946
vt 0.209514 0.280471
vt 0.221543 0.280471
vt 0.221543 0.171946
vt 0.233571 0.280471
vt 0.233571 0.171946
vt 0.245599 0.280471
vt 0.245599 0.171946
vt 0.257627 0.280471
vt 0.257627 0.171946
vt 0.269655 0.280471
vt 0.269655 0.171946
vt 0.281684 0.280471
vt 0.281684 0.171946
vt 0.272127 0.364368
vt 0.249574 0.323501
vt 0.227021 0.364368
vt 0.204468 0.325305
vt 0.227021 0.286242
vt 0.272127 0.286242
vt 0.294680 0.325305
vn -0.6801 -0.7330 0.0123
vn -0.0000 -1.0000 -0.0000
vn 0.6801 -0.7331 0.0000
vn 0.6762 -0.7289 -0.1068
vn 0.6757 -0.7283 -0.1142
vn 0.6751 -0.7278 -0.1205
vn -0.0000 -0.9979 -0.0645
vn -0.0000 -0.9978 -0.0669
vn -0.0000 -0.9976 -0.0693
vn -0.6779 -0.7306 -0.0818
vn -0.6779 -0.7306 -0.0817
vn 0.6751 -0.7277 -0.1213
vn -0.0000 -0.9976 -0.0694
vn 0.6731 -0.7255 -0.1432
vn -0.0000 -0.9925 -0.1225
vn -0.6646 -0.7164 -0.2123
vn 0.6788 -0.7317 -0.0620
vn -0.0000 -0.9988 -0.0483
vn -0.6780 -0.7308 -0.0795
vn 0.4777 -0.8781 -0.0292
vn -0.0000 -0.9735 -0.2288
vn -0.4731 -0.8806 -0.0280
vn -0.6851 -0.7134 0.1475
vn 0.0035 -0.9981 0.0617
vn 0.7011 -0.7069 0.0938
vn -0.6979 -0.6986 0.1579
vn -0.6993 -0.6975 0.1567
vn -0.6984 -0.6982 0.1573
vn -0.0015 -0.9939 0.1101
vn -0.0001 -0.9942 0.1080
vn -0.0001 -0.9942 0.1078
vn 0.6991 -0.6974 0.1575
vn -0.7021 -0.6954 0.1529
vn -0.7049 -0.6935 0.1492
vn -0.0000 -0.9942 0.1077
vn 0.6909 -0.6797 0.2464
vn -0.7519 -0.5988 0.2757
vn -0.1440 -0.9509 0.2742
vn 0.6937 -0.6126 0.3787
vn 0.1335 -0.9895 0.0551
vn -0.1450 -0.9892 0.0209
vn 0.0625 -0.9874 0.1453
vn -0.1151 -0.9835 0.1395
vn 0.0817 -0.9544 0.2870
vn 0.9928 0.1125 0.0408
vn -0.2088 -0.2389 0.9483
vn -0.9761 0.0518 0.2111
vn 0.2981 -0.5454 0.7834
vn 0.0000 0.0000 -1.0000
vn 0.3779 0.0000 -0.9259
vn -0.0879 0.0000 -0.9961
vn -0.6801 0.7330 0.0123
vn 0.0000 1.0000 -0.0000
vn 0.6801 0.7331 0.0000
vn 0.6762 0.7289 -0.1068
vn 0.6751 0.7278 -0.1205
vn 0.6757 0.7283 -0.1142
vn 0.0000 0.9979 -0.0645
vn -0.0000 0.9976 -0.0693
vn 0.0000 0.9978 -0.0669
vn -0.6779 0.7306 -0.0818
vn -0.6779 0.7306 -0.0817
vn 0.6751 0.7277 -0.1213
vn -0.0000 0.9976 -0.0694
vn 0.6731 0.7255 -0.1432
vn -0.0000 0.9925 -0.1225
vn -0.6646 0.7164 -0.2123
vn 0.6788 0.7317 -0.0620
vn 0.0000 0.9988 -0.0483
vn -0.6780 0.7308 -0.0795
vn 0.4777 0.8781 -0.0292
vn 0.0000 0.9735 -0.2288
vn -0.4731 0.8806 -0.0280
vn -0.6851 0.7134 0.1475
vn 0.0035 0.9981 0.0617
vn 0.7011 0.7069 0.0938
vn -0.6979 0.6986 0.1579
vn -0.6984 0.6982 0.1573
vn -0.6993 0.6975 0.1567
vn -0.0015 0.9939 0.1101
vn -0.0000 0.9942 0.1078
vn -0.0001 0.9942 0.1080
vn 0.6991 0.6974 0.1575
vn -0.7049 0.6935 0.1492
vn -0.7021 0.6954 0.1529
vn 0.0000 0.9942 0.1077
vn 0.6909 0.6797 0.2464
vn -0.7519 0.5988 0.2757
vn -0.1440 0.9509 0.2742
vn 0.6937 0.6126 0.3787
vn 0.1335 0.9895 0.0551
vn -0.1450 0.9892 0.0209
vn 0.0625 0.9874 0.1453
vn -0.1151 0.9835 0.1395
vn 0.0817 0.9544 0.2870
vn 0.9928 -0.1125 0.0408
vn -0.2088 0.2389 0.9483
vn -0.9761 -0.0518 0.2111
vn 0.2981 0.5454 0.7834
vn 0.7313 0.0000 0.6821
vn 0.6585 0.0000 -0.7526
vn -0.9296 0.0000 -0.3686
vn 0.0360 -0.9992 -0.0187
vn 0.0360 0.9992 -0.0187
vn -0.8460 -0.0010 0.5332
vn -0.2132 -0.0009 -0.9770
vn 0.9697 0.0014 -0.2443
vn -0.0237 0.9994 -0.0262
vn -0.0213 -0.9995 -0.0254
vn 0.9501 0.0000 0.3118
vn 0.6417 0.0000 -0.7669
vn -0.9483 0.0000 -0.3173
vn 0.0427 -0.9989 -0.0173
vn 0.0427 0.9989 -0.0173
vn -0.3619 -0.4118 0.8363
vn -0.1240 -0.0179 -0.9921
vn 0.5833 0.5879 -0.5605
vn -0.6237 0.7799 -0.0520
vn 0.5928 -0.8047 -0.0307
vn -0.3619 0.4118 0.8363
vn -0.1240 0.0179 -0.9921
vn 0.5833 -0.5879 -0.5605
vn -0.6237 -0.7799 -0.0520
vn 0.5928 0.8047 -0.0307
vn -0.4631 -0.3598 0.8100
vn -0.0312 0.0484 -0.9983
vn 0.6324 0.4581 -0.6247
vn -0.4723 0.8719 -0.1295
vn 0.4422 -0.8957 0.0464
vn -0.4631 0.3598 0.8100
vn -0.0312 -0.0484 -0.9983
vn 0.6324 -0.4581 -0.6247
vn -0.4723 -0.8719 -0.1295
vn 0.4422 0.8957 0.0464
vn 0.0000 -0.0739 -0.9973
vn 0.8497 -0.0389 -0.5259
vn 0.8497 0.0389 0.5259
vn -0.0000 0.0739 0.9973
vn -0.8497 0.0389 0.5259
vn -0.8497 -0.0389 -0.5259
vn 0.0000 -0.9973 0.0739
vn -0.0000 0.0739 -0.9973
vn 0.8497 0.0389 -0.5259
vn 0.8497 -0.0389 0.5259
vn 0.0000 -0.0739 0.9973
vn -0.8497 -0.0389 0.5259
vn -0.8497 0.0389 -0.5259
vn 0.0000 0.9973 0.0739
usemtl lambert2SG
s 1
f 1/1/1 2/2/1 3/3/1 4/4/1
f 2/5/2 5/6/2 6/7/2 3/8/2
f 5/9/3 7/10/3 8/11/3 6/12/3
f 7/10/4 5/9/4 9/13/5 10/14/6
f 5/6/7 2/5/7 11/15/8 9/16/9
f 2/2/10 1/1/10 12/17/11 11/18/11
f 10/14/6 9/13/5 13/19/12 14/20/12
f 9/16/9 11/15/8 15/21/13 13/22/13
f 11/18/11 12/17/11 16/23/11 15/24/11
f 14/20/14 13/19/14 17/25/14 18/26/14
f 13/22/15 15/21/15 19/27/15 17/28/15
f 15/24/16 16/23/16 20/29/16 19/30/16
f 18/26/17 17/25/17 21/31/17 22/32/17
f 17/28/18 19/27/18 23/33/18 21/34/18
f 19/30/19 20/29/19 24/35/19 23/36/19
f 22/37/20 21/38/20 25/39/20 26/40/20
f 21/38/21 23/41/21 27/42/21 25/39/21
f 23/41/22 24/43/22 28/44/22 27/42/22
f 4/4/23 3/3/23 29/45/23 30/46/23
f 3/8/24 6/7/24 31/47/24 29/48/24
f 6/12/25 8/11/25 32/49/25 31/50/25
f 30/46/26 29/45/27 33/51/28
f 29/48/29 31/47/29 34/52/30 35/53/31
f 31/54/32 32/55/32 36/56/32 34/57/32
f 33/51/28 35/58/33 37/59/34 38/60/34
f 35/61/31 34/62/30 39/63/35
f 34/64/36 36/65/36 40/66/36 41/67/36
f 38/60/37 37/59/37 42/68/37 43/69/37
f 37/70/38 39/63/38 44/71/38 42/72/38
f 41/67/39 40/66/39 45/73/39 46/74/39
f 26/75/40 25/76/40 47/77/40 48/78/40
f 25/76/2 27/79/2 49/80/2 47/77/2
f 27/79/41 28/81/41 50/82/41 49/80/41
f 39/63/42 34/62/42 41/83/42
f 35/61/43 39/63/43 37/70/43
f 51/84/44 39/63/44 41/83/44 46/85/44
f 44/86/45 39/87/45 52/88/45 53/89/45
f 43/90/46 42/91/46 44/92/46 53/93/46
f 39/94/47 51/95/47 54/96/47 52/97/47
f 46/98/48 45/99/48 54/100/48 51/101/48
f 33/51/28 29/45/27 35/58/33
f 48/102/49 47/103/49 55/104/49
f 49/105/50 50/106/50 56/107/50
f 55/104/51 47/103/51 49/105/51 56/107/51
f 1/1/52 4/4/52 57/108/52 58/109/52
f 58/110/53 57/111/53 59/112/53 60/113/53
f 60/114/54 59/115/54 8/11/54 7/10/54
f 7/10/55 10/14/56 61/116/57 60/114/55
f 60/113/58 61/117/59 62/118/60 58/110/58
f 58/109/61 62/119/62 12/17/62 1/1/61
f 10/14/56 14/20/63 63/120/63 61/116/57
f 61/117/59 63/121/64 64/122/64 62/118/60
f 62/119/62 64/123/62 16/23/62 12/17/62
f 14/20/65 18/26/65 65/124/65 63/120/65
f 63/121/66 65/125/66 66/126/66 64/122/66
f 64/123/67 66/127/67 20/29/67 16/23/67
f 18/26/68 22/32/68 67/128/68 65/124/68
f 65/125/69 67/129/69 68/130/69 66/126/69
f 66/127/70 68/131/70 24/35/70 20/29/70
f 22/37/71 26/40/71 69/132/71 67/133/71
f 67/133/72 69/132/72 70/134/72 68/135/72
f 68/135/73 70/134/73 28/44/73 24/43/73
f 4/4/74 30/46/74 71/136/74 57/108/74
f 57/111/75 71/137/75 72/138/75 59/112/75
f 59/115/76 72/139/76 32/49/76 8/11/76
f 30/46/77 33/51/78 71/136/79
f 71/137/80 73/140/81 74/141/82 72/138/80
f 72/142/83 74/143/83 36/56/83 32/55/83
f 33/51/78 38/60/84 75/144/84 73/145/85
f 73/146/81 76/147/86 74/148/82
f 74/149/87 77/150/87 40/66/87 36/65/87
f 38/60/88 43/69/88 78/151/88 75/144/88
f 75/152/89 78/153/89 79/154/89 76/147/89
f 77/150/90 80/155/90 45/73/90 40/66/90
f 26/75/91 48/78/91 81/156/91 69/157/91
f 69/157/53 81/156/53 82/158/53 70/159/53
f 70/159/92 82/158/92 50/82/92 28/81/92
f 76/147/93 77/160/93 74/148/93
f 73/146/94 75/152/94 76/147/94
f 83/161/95 80/162/95 77/160/95 76/147/95
f 79/163/96 53/89/96 52/88/96 76/164/96
f 43/90/97 53/93/97 79/165/97 78/166/97
f 76/167/98 52/97/98 54/96/98 83/168/98
f 80/169/99 83/170/99 54/100/99 45/99/99
f 33/51/78 73/145/85 71/136/79
f 48/102/49 55/104/49 81/171/49
f 82/172/50 56/107/50 50/106/50
f 55/104/51 56/107/51 82/172/51 81/171/51
f 84/173/100 85/174/100 86/175/100 87/176/100
f 87/176/101 86/175/101 88/177/101 89/178/101
f 89/178/102 88/177/102 90/179/102 91/180/102
f 85/174/103 90/181/103 88/182/103 86/175/103
f 91/183/104 84/173/104 87/176/104 89/184/104
f 92/185/105 93/186/105 94/187/105 95/188/105
f 95/188/106 94/187/106 96/189/106 97/190/106
f 97/190/107 96/189/107 98/191/107 99/192/107
f 93/186/108 98/193/108 96/194/108 94/187/108
f 99/195/109 92/185/109 95/188/109 97/196/109
f 100/197/110 101/198/110 102/199/110 103/200/110
f 103/200/111 102/199/111 104/201/111 105/202/111
f 105/202/112 104/201/112 106/203/112 107/204/112
f 101/198/113 106/205/113 104/206/113 102/199/113
f 107/207/114 100/197/114 103/200/114 105/208/114
f 108/209/115 109/210/115 110/211/115 111/212/115
f 111/212/116 110/211/116 112/213/116 113/214/116
f 113/214/117 112/213/117 114/215/117 115/216/117
f 109/210/118 114/217/118 112/218/118 110/211/118
f 115/219/119 108/209/119 111/212/119 113/220/119
f 116/221/120 117/222/120 118/223/120 119/224/120
f 117/222/121 120/225/121 121/226/121 118/223/121
f 120/225/122 122/227/122 123/228/122 121/226/122
f 119/224/123 118/223/123 121/229/123 123/230/123
f 122/231/124 120/232/124 117/222/124 116/221/124
f 124/233/125 125/234/125 126/235/125 127/236/125
f 127/236/126 126/235/126 128/237/126 129/238/126
f 129/238/127 128/237/127 130/239/127 131/240/127
f 125/234/128 130/241/128 128/242/128 126/235/128
f 131/243/129 124/233/129 127/236/129 129/244/129
f 132/245/130 133/246/130 134/247/130 135/248/130
f 133/246/131 136/249/131 137/250/131 134/247/131
f 136/249/132 138/251/132 139/252/132 137/250/132
f 135/248/133 134/247/133 137/253/133 139/254/133
f 138/255/134 136/256/134 133/246/134 132/245/134
f 140/257/135 141/258/135 142/259/135 143/260/135
f 141/258/136 144/261/136 145/262/136 142/259/136
f 144/261/137 146/263/137 147/264/137 145/262/137
f 146/263/138 148/265/138 149/266/138 147/264/138
f 148/265/139 150/267/139 151/268/139 149/266/139
f 150/267/140 140/269/140 143/270/140 151/268/140
f 143/271/141 142/272/141 152/273/141
f 142/272/141 145/274/141 152/273/141
f 145/274/141 147/275/141 152/273/141
f 147/275/141 149/276/141 152/273/141
f 149/276/141 151/277/141 152/273/141
f 151/277/141 143/271/141 152/273/141
f 153/278/142 154/279/142 155/280/142 156/281/142
f 156/281/143 155/280/143 157/282/143 158/283/143
f 158/283/144 157/282/144 159/284/144 160/285/144
f 160/285/145 159/284/145 161/286/145 162/287/145
f 162/287/146 161/286/146 163/288/146 164/289/146
f 164/289/147 163/288/147 154/290/147 153/291/147
f 154/292/148 165/293/148 155/294/148
f 155/294/148 165/293/148 157/295/148
f 157/295/148 165/293/148 159/296/148
f 159/296/148 165/293/148 161/297/148
f 161/297/148 165/293/148 163/298/148
f 163/298/148 165/293/148 154/292/148
