# Blender v2.79 (sub 0) OBJ File: 'Tutorial.blend'
# www.blender.org
mtllib Spawn.mtl
o Tutorial_Vertical_walls_Cylinder.141
v 1.494737 -0.000000 -2.022543
v 1.793040 -0.000000 -1.767767
v 2.047816 -0.000000 -1.469463
v 2.252789 -0.000000 -1.134976
v 2.402915 -0.000000 -0.772542
v 2.494494 -0.000000 -0.391086
v 2.525273 -0.000000 0.000000
v 2.494494 -0.000000 0.391087
v 2.402915 -0.000000 0.772543
v 2.252789 -0.000000 1.134977
v 2.047814 -0.000000 1.469464
v 1.793040 -0.000000 1.767768
v 1.494735 -0.000000 2.022543
v 1.160249 -0.000000 2.227517
v 0.797814 -0.000000 2.377642
v 0.416358 -0.000000 2.469221
v 0.025271 -0.000000 2.500000
v -0.365815 -0.000000 2.469220
v -0.747272 -0.000000 2.377641
v -1.109704 -0.000000 2.227515
v -1.444192 -0.000000 2.022541
v -1.742496 -0.000000 1.767765
v -1.997272 -0.000000 1.469460
v -2.202245 -0.000000 1.134974
v -2.352368 -0.000000 0.772539
v -2.443948 -0.000000 0.391083
v -2.474727 -0.080416 -0.000004
v -2.443948 -0.080416 -0.391090
v -2.352366 -0.080416 -0.772546
v -2.202241 -0.080416 -1.134980
v -1.997266 -0.080416 -1.469467
v -1.742490 -0.080416 -1.767770
v -1.444186 -0.080416 -2.022545
v 1.494737 8.000002 -2.022543
v 1.793040 8.000002 -1.767767
v 2.047816 8.000002 -1.469463
v 2.252789 8.000002 -1.134976
v 2.402915 8.000002 -0.772542
v 2.494494 8.000002 -0.391086
v 2.525273 8.000002 0.000000
v 2.494494 8.000002 0.391087
v 2.402915 8.000002 0.772543
v 2.252789 8.000002 1.134977
v 2.047814 8.000002 1.469464
v 1.793040 8.000002 1.767768
v 1.494735 8.000002 2.022543
v 1.160249 8.000002 2.227517
v 0.797814 8.000002 2.377642
v 0.416358 8.000002 2.469221
v 0.025271 8.000002 2.500000
v -0.365815 8.000002 2.469220
v -0.747272 8.000002 2.377641
v -1.109704 8.000002 2.227515
v -1.444192 8.000002 2.022541
v -1.742496 8.000002 1.767765
v -1.997272 8.000002 1.469460
v -2.202245 8.000002 1.134974
v -2.352368 8.000002 0.772539
v -2.443948 8.000002 0.391083
v -2.474727 8.000002 -0.000004
v -2.443948 8.000002 -0.391090
v -2.352366 8.000002 -0.772546
v -2.202241 8.000002 -1.134980
v -1.997266 8.000002 -1.469467
v -1.742490 8.000002 -1.767770
v -1.444186 8.000002 -2.022545
vt 0.296019 0.000000
vt 0.308548 0.000000
vt 0.308548 0.323217
vt 0.296019 0.323217
vt 0.090409 0.360000
vt 0.104697 0.360000
vt 0.104697 0.680000
vt 0.090409 0.680000
vt 0.821411 0.642000
vt 0.806761 0.642000
vt 0.806761 0.322000
vt 0.821411 0.322000
vt 0.238856 0.003217
vt 0.253505 0.000000
vt 0.253505 0.323217
vt 0.238856 0.323217
vt 0.033246 0.360000
vt 0.046822 0.360000
vt 0.046822 0.680000
vt 0.033246 0.680000
vt 0.876453 0.642000
vt 0.863924 0.642000
vt 0.863924 0.322000
vt 0.876453 0.322000
vt 0.187289 0.003217
vt 0.198462 0.003217
vt 0.198462 0.323217
vt 0.187289 0.323217
vt 0.319722 0.000000
vt 0.319722 0.323217
vt 0.118273 0.360000
vt 0.118273 0.680000
vt 0.792473 0.642000
vt 0.792473 0.322000
vt 0.268154 0.000000
vt 0.268154 0.323217
vt 0.061111 0.360000
vt 0.061111 0.680000
vt 0.850348 0.642000
vt 0.850348 0.322000
vt 0.210992 0.003217
vt 0.210992 0.323217
vt 0.329265 0.000000
vt 0.329265 0.323217
vt 0.000000 0.360000
vt 0.009543 0.360000
vt 0.009543 0.680000
vt 0.000000 0.680000
vt 0.130803 0.360000
vt 0.130803 0.680000
vt 0.778897 0.642000
vt 0.778897 0.322000
vt 0.282443 0.000000
vt 0.282443 0.323217
vt 0.075760 0.360000
vt 0.075760 0.680000
vt 0.836060 0.642000
vt 0.836060 0.322000
vt 0.224567 0.003217
vt 0.224568 0.323217
vt 0.020717 0.360000
vt 0.020717 0.680000
vt 0.141976 0.360000
vt 0.141976 0.680000
vt 0.766368 0.642000
vt 0.766368 0.322000
vt 0.887627 0.642000
vt 0.887627 0.322000
vt 0.755194 0.642000
vt 0.755194 0.322000
vn 0.8526 0.0000 0.5225
vn -0.9724 0.0000 -0.2334
vn 0.0785 0.0000 -0.9969
vn 0.9969 0.0000 -0.0785
vn -0.9239 0.0000 0.3827
vn -0.5225 0.0000 -0.8526
vn 0.7604 0.0000 -0.6494
vn 0.7604 0.0000 0.6494
vn -0.9239 0.0000 -0.3827
vn 0.2334 0.0000 -0.9724
vn 0.9969 0.0000 0.0785
vn -0.9724 0.0000 0.2334
vn -0.3827 0.0000 -0.9239
vn 0.8526 0.0000 -0.5225
vn 0.6494 0.0000 0.7604
vn -0.6494 0.0000 0.7604
vn -0.8526 0.0000 -0.5225
vn 0.3827 0.0000 -0.9239
vn 0.9724 0.0000 0.2334
vn -0.9969 0.0000 0.0785
vn -0.2334 0.0000 -0.9724
vn 0.9239 0.0000 -0.3827
vn -0.7604 0.0000 0.6494
vn -0.7604 0.0000 -0.6494
vn 0.5225 0.0000 -0.8526
vn 0.9239 0.0000 0.3827
vn -0.9969 0.0000 -0.0785
vn -0.0785 0.0000 -0.9969
vn 0.9724 0.0000 -0.2334
vn -0.8526 0.0000 0.5225
vn -0.6494 0.0000 -0.7604
vn 0.6494 0.0000 -0.7604
vn 0.0000 -1.0000 -0.0000
usemtl None
s off
f 30/1/1 31/2/1 64/3/1 63/4/1
f 8/5/2 9/6/2 42/7/2 41/8/2
f 17/9/3 18/10/3 51/11/3 50/12/3
f 26/13/4 27/14/4 60/15/4 59/16/4
f 4/17/5 5/18/5 38/19/5 37/20/5
f 13/21/6 14/22/6 47/23/6 46/24/6
f 22/25/7 23/26/7 56/27/7 55/28/7
f 31/2/8 32/29/8 65/30/8 64/3/8
f 9/6/9 10/31/9 43/32/9 42/7/9
f 18/10/10 19/33/10 52/34/10 51/11/10
f 27/14/11 28/35/11 61/36/11 60/15/11
f 5/18/12 6/37/12 39/38/12 38/19/12
f 14/22/13 15/39/13 48/40/13 47/23/13
f 23/26/14 24/41/14 57/42/14 56/27/14
f 32/29/15 33/43/15 66/44/15 65/30/15
f 1/45/16 2/46/16 35/47/16 34/48/16
f 10/31/17 11/49/17 44/50/17 43/32/17
f 19/33/18 20/51/18 53/52/18 52/34/18
f 28/35/19 29/53/19 62/54/19 61/36/19
f 6/37/20 7/55/20 40/56/20 39/38/20
f 15/39/21 16/57/21 49/58/21 48/40/21
f 24/41/22 25/59/22 58/60/22 57/42/22
f 2/46/23 3/61/23 36/62/23 35/47/23
f 11/49/24 12/63/24 45/64/24 44/50/24
f 20/51/25 21/65/25 54/66/25 53/52/25
f 29/53/26 30/1/26 63/4/26 62/54/26
f 7/55/27 8/5/27 41/8/27 40/56/27
f 16/57/28 17/9/28 50/12/28 49/58/28
f 25/59/29 26/13/29 59/16/29 58/60/29
f 3/61/30 4/17/30 37/20/30 36/62/30
f 12/67/31 13/21/31 46/24/31 45/68/31
f 21/65/32 22/69/32 55/70/32 54/66/32
f 35/47/33 36/62/33 37/20/33 38/19/33 39/38/33 40/56/33 41/8/33 42/7/33 43/32/33 44/50/33 45/64/33 46/24/33 47/23/33 48/40/33 49/58/33 50/12/33 51/11/33 52/34/33 53/52/33 54/66/33 55/70/33 56/27/33 57/42/33 58/60/33 59/16/33 60/15/33 61/36/33 62/54/33 63/4/33 64/3/33 65/30/33 66/44/33 34/48/33
