# Blender v2.79 (sub 0) OBJ File: ''
# www.blender.org
mtllib Towerplatform.mtl
o Cube_Cube.003
v -2.625000 0.000000 -1.125000
v -2.625000 0.250000 -1.125000
v -2.625000 0.250000 -2.625000
v -2.625000 0.000000 -2.625000
v 2.625000 0.250000 -2.625000
v 2.625000 0.000000 -2.625000
v 2.625000 0.250000 -1.125000
v 1.125000 0.250000 -1.125000
v 1.125000 0.250000 1.125000
v 2.625000 0.250000 1.125000
v 2.625000 -0.000000 2.625000
v 2.625000 0.250000 2.625000
v -2.625000 0.250000 2.625000
v -2.625000 -0.000000 2.625000
v 2.625000 0.000000 -1.125000
v 2.625000 0.250000 -1.125000
v 2.625000 -0.000000 1.125000
v -2.625000 -0.000000 1.125000
v -2.625000 0.250000 1.125000
v 2.625000 0.250000 1.125000
v 2.625000 0.000000 -1.125000
v 2.625000 -0.000000 1.125000
v -1.125000 0.000000 -1.125000
v -1.125000 0.250000 -1.125000
v -1.125000 0.250000 1.125000
v -1.125000 -0.000000 1.125000
v 1.125000 -0.000000 1.125000
v 1.125000 0.000000 -1.125000
v -2.625000 0.000000 -1.125000
v -2.625000 -0.000000 1.125000
v -2.625000 0.250000 1.125000
v -2.625000 0.250000 -1.125000
vt 0.967742 0.800000
vt 0.935484 0.800000
vt 0.935484 0.600000
vt 0.967742 0.600000
vt 0.903226 1.000000
vt 0.870968 1.000000
vt 0.870968 0.300000
vt 0.903226 0.300000
vt 0.774193 0.000000
vt 0.967741 0.000000
vt 0.967741 0.300000
vt 0.774193 0.300000
vt 0.806451 0.300000
vt 0.838709 0.300000
vt 0.838710 1.000000
vt 0.806452 1.000000
vt 0.193548 0.000000
vt 0.193548 0.700000
vt 0.000000 0.700000
vt 0.000000 0.000000
vt 0.387097 0.000000
vt 0.387097 0.700000
vt 0.193548 0.700000
vt 0.193548 0.000000
vt 0.870968 0.300000
vt 0.870968 1.000000
vt 0.838710 1.000000
vt 0.838710 0.300000
vt 0.580645 0.700000
vt 0.580645 0.000000
vt 0.774193 0.000000
vt 0.774193 0.700000
vt 0.967741 0.000000
vt 1.000000 0.000000
vt 1.000000 0.200000
vt 0.967741 0.200000
vt 0.774193 1.000000
vt 0.774193 0.300000
vt 0.806451 0.300000
vt 0.806451 1.000000
vt 0.580645 0.000000
vt 0.580645 0.700000
vt 0.387097 0.700000
vt 0.387097 0.000000
vt 1.000000 0.500000
vt 0.967742 0.500000
vt 0.967742 0.300000
vt 1.000000 0.300000
vt 0.935484 0.600000
vt 0.903226 0.600000
vt 0.903226 0.300000
vt 0.935484 0.300000
vt 0.741935 0.900000
vt 0.709677 0.900000
vt 0.709677 0.700000
vt 0.741935 0.700000
vt 0.935484 0.900000
vt 0.903226 0.900000
vt 0.903226 0.600000
vt 0.935484 0.600000
vt 0.000000 0.700000
vt 0.193548 0.700000
vt 0.193548 1.000000
vt 0.000000 1.000000
vt 0.645161 0.700000
vt 0.677419 0.700000
vt 0.677419 0.900000
vt 0.645161 0.900000
vt 0.677419 0.700000
vt 0.709677 0.700000
vt 0.709677 0.900000
vt 0.677419 0.900000
vt 0.967742 0.300000
vt 0.967742 0.600000
vt 0.935484 0.600000
vt 0.935484 0.300000
vt 0.612903 1.000000
vt 0.580645 1.000000
vt 0.580645 0.700000
vt 0.612903 0.700000
vt 0.387097 0.700000
vt 0.580645 0.700000
vt 0.580645 1.000000
vt 0.387097 1.000000
vt 0.967742 1.000000
vt 0.935484 1.000000
vt 0.935484 0.800000
vt 0.967742 0.800000
vt 0.387097 1.000000
vt 0.193548 1.000000
vt 0.193548 0.700000
vt 0.387097 0.700000
vt 0.645161 0.900000
vt 0.612903 0.900000
vt 0.612903 0.700000
vt 0.645161 0.700000
vn -1.0000 0.0000 0.0000
vn 0.0000 0.0000 -1.0000
vn 0.0000 1.0000 0.0000
vn 0.0000 0.0000 1.0000
vn 0.0000 -1.0000 -0.0000
vn 1.0000 0.0000 0.0000
usemtl None
s 1
f 1/1/1 2/2/1 3/3/1 4/4/1
f 4/5/2 3/6/2 5/7/2 6/8/2
f 7/9/3 8/10/3 9/11/3 10/12/3
f 11/13/4 12/14/4 13/15/4 14/16/4
f 4/17/5 6/18/5 15/19/5 1/20/5
f 5/21/3 3/22/3 2/23/3 16/24/3
f 17/25/2 18/26/2 19/27/2 20/28/2
f 18/29/5 17/30/5 11/31/5 14/32/5
f 19/33/1 18/34/1 14/35/1 13/36/1
f 1/37/4 15/38/4 16/39/4 2/40/4
f 20/41/3 19/42/3 13/43/3 12/44/3
f 17/45/6 20/46/6 12/47/6 11/48/6
f 21/49/6 7/50/6 10/51/6 22/52/6
f 6/53/6 5/54/6 16/55/6 15/56/6
f 23/57/6 24/58/6 25/59/6 26/60/6
f 22/61/5 27/62/5 28/63/5 21/64/5
f 21/65/4 7/66/4 8/67/4 28/68/4
f 10/69/2 22/70/2 27/71/2 9/72/2
f 29/73/1 30/74/1 31/75/1 32/76/1
f 27/77/1 9/78/1 8/79/1 28/80/1
f 31/81/3 25/82/3 24/83/3 32/84/3
f 30/85/2 31/86/2 25/87/2 26/88/2
f 29/89/5 23/90/5 26/91/5 30/92/5
f 32/93/4 29/94/4 23/95/4 24/96/4
